# xmcd
#
# Track frame offsets:
#	150
#	41277
#	66854
#	82202
#	103059
#	136553
#	154518
#	175682
#	194769
#	217037
#
# Disc length: 4317 seconds
#
# Revision: 1
# Processed by: cddbd v1.5.2PL0 Copyright (c) Steve Scherf et al.
# Submitted via: audiograbber 1.83.01
#
DISCID=8710db0a
DTITLE=Ritual Steel - Immortal
DYEAR=2013
DGENRE=Heavy Metal
TTITLE0=Aggressor
TTITLE1=The Ritual Law
TTITLE2=Judgement Day
TTITLE3=Dr. West
TTITLE4=Satisfy your dreams
TTITLE5=Fire
TTITLE6=Solar Maiden II
TTITLE7=Metal Sanctuary
TTITLE8=Get down to the underworld
TTITLE9=Welcome to the metal dead
EXTD=
EXTT0=
EXTT1=
EXTT2=
EXTT3=
EXTT4=
EXTT5=
EXTT6=
EXTT7=
EXTT8=
EXTT9=
PLAYORDER=
